# xmcd CD database file
#
# Track frame offsets:
#	150
#	25935
#	46495
#
# Disc length: 879 seconds
#
# Revision: 0
# Processed by: cddbd v1.5.1PL2 Copyright (c) Steve Scherf et al.
# Submitted via: CDex 1.60beta1
#
DISCID=1e036d03
DTITLE=最終兵器彼女 - 最終兵器彼女 Special Edition 地球(ほし)の果て
DYEAR=2003
DGENRE=Anime
TTITLE0=折笠富美子/地球の果て〜Vocal Edition
TTITLE1=杉内光雄/夢見るために〜Full Chorus Version
TTITLE2=地球の果て〜Full Instrumental Version
EXTD=YEAR: 2003
EXTT0=
EXTT1=
EXTT2=
PLAYORDER=
